<?xml version="1.0" encoding="utf-8"?>
<!-- Generator: Adobe Illustrator 22.0.1, SVG Export Plug-In . SVG Version: 6.00 Build 0)  -->
<svg version="1.1" id="Layer_1" xmlns="http://www.w3.org/2000/svg" xmlns:xlink="http://www.w3.org/1999/xlink" x="0px" y="0px"
	 viewBox="0 0 833.1 816.7" style="enable-background:new 0 0 833.1 816.7;" xml:space="preserve">
<path d="M833.6,815.7V-0.2H1v793.4l19.2-2.7c17.5-2.4,27.3-5.8,32.1-17.8c4.8-12,5.1-32.7,5.1-68.3v-175c0-19.5,0-30.3-3.3-38.5
	c-3.4-8.3-10.2-13.9-23.3-22.7l-9-6l-0.1-0.1l-0.1-0.1c-2.4-2.4-3.6-7.1-3-11.7c0.5-3.7,2-6.5,4.2-7.9l0.1-0.1l0.1,0
	c22.5-7.8,79.8-33.9,102.8-48.9l0.2-0.2h0.3c5.8,0,9.9,2.5,11,6.8l0,0.1l0,0.2c-1.2,21-4,75.2-4,123.9v180c0,34.3,0.4,56,5.4,68.2
	c4.9,12,14.6,15.4,31.7,17.8l21,3l0.2,0l0.2,0.1c2.3,1.7,3.9,4.5,4.5,8.3c0.8,4.7,0,10-2.1,13.8h54c-2-3.8-2.8-9.1-2.1-13.8
	c0.6-3.7,2.2-6.6,4.5-8.3l0.2-0.1l0.2,0l23-3c17.5-2.4,27.3-5.8,32.1-17.8c4.8-12,5.1-32.7,5.1-68.3v-211c0-26.9,0-28-19-28h-35H257
	l-0.3-0.2c-3.1-2.1-5.1-5.4-5.7-9.4c-0.5-3.8,0.3-7.8,2.4-10.9l0.1-0.2l0.2-0.1l43-21c9.7-4.9,14.4-11.1,14.4-19.1
	c0-69.9,10.2-127.6,31.1-176.4c10.4-23.8,29.8-57.9,62.5-85.2c33.7-28.1,73.5-42.4,118.4-42.4c26.5,0,51.1,5.9,69.4,16.6
	c19.1,11.2,29.6,27,29.6,44.4c0,9.7-4.3,19.1-12.2,26.2c-7.5,6.8-17.3,10.8-26.8,10.8c-11.7,0-17.9-4.5-24.8-12.3
	c-10.9-12.6-22.5-22.7-34.5-30.1c-14.8-9-29.8-13.6-44.7-13.6c-15.3,0-29,4.6-40.9,13.8c-12,9.2-21.8,22.9-29.2,40.6
	c-19.1,48.7-21.9,126.6-21.9,168.6v29c0,13,0,20.2,2,23.6c1.8,3.1,5.5,3.4,14,3.4h114h0.4l0.3,0.3c5.2,4.7,7.1,13.7,5.1,24.1
	c-1.9,9.7-6.9,17.6-12.4,19.6l-0.2,0.1h-0.2h-107c-16,0-16,1.1-16,28v211c0,72.5,2.3,83.1,37.1,86l36,3l0.3,0l0.2,0.2
	c2.3,1.7,3.9,4.5,4.5,8.3c0.8,4.7,0,10-2.1,13.8H833.6z M126,284.7c-9.4,8.2-22.8,12.7-37.7,12.7c-14.9,0-28.3-5.4-37.8-15.2
	c-9.1-9.4-14.2-22.1-14.2-35.8c0-16.1,5.6-30,16.1-40.1c10-9.6,23.8-14.9,38.9-14.9c14.5,0,27.6,5.6,37,15.8c9,9.8,14,23,14,37.2
	C142.4,261.5,136.7,275.4,126,284.7z"/>
</svg>
