<?xml version="1.0" encoding="utf-8"?>
<!-- Generator: Adobe Illustrator 22.0.1, SVG Export Plug-In . SVG Version: 6.00 Build 0)  -->
<svg version="1.1" id="Layer_1" xmlns="http://www.w3.org/2000/svg" xmlns:xlink="http://www.w3.org/1999/xlink" x="0px" y="0px"
	 viewBox="0 0 1042.085 1080" style="enable-background:new 0 0 1042.085 1080;" xml:space="preserve">
<g>
	<path d="M462.486,1079.5c2.239-3.692,3.235-9.373,2.431-14.214c-0.6-3.615-2.082-6.357-4.283-7.931l-0.112-0.08l-36.137-3.011
		c-35.222-2.936-37.542-13.604-37.542-86.502v-211c0-13.297,0-20.622,2.063-24.385c1.943-3.543,5.847-4.115,14.437-4.115h107.088
		l0.083-0.03c5.349-1.945,10.209-9.678,12.093-19.241c2-10.153,0.158-18.975-4.928-23.599l-0.143-0.13H403.344
		c-16.5,0-16.5-0.516-16.5-27.5v-29c0-42.084,2.854-119.976,21.966-168.818c14.904-35.77,39.296-54.682,70.534-54.682
		c19.056,0,48.338,7.604,79.622,43.827c6.747,7.711,12.897,12.173,24.378,12.173c20.509,0,38.5-17.056,38.5-36.5
		c0-17.204-10.431-32.805-29.372-43.931c-18.189-10.685-42.74-16.569-69.128-16.569c-112.481,0-163.67,89.024-180.458,127.299
		c-20.889,48.74-31.042,106.375-31.042,176.201c0,8.203-4.816,14.599-14.724,19.553l-43.117,21.058l-0.075,0.112
		c-4.328,6.491-2.861,15.693,3.139,19.693l0.126,0.084h35.151c19.5,0,19.5,1.609,19.5,28.5v211c0,35.625-0.236,56.369-5.089,68.438
		c-4.916,12.226-14.794,15.677-32.478,18.066l-23.122,3.016l-0.102,0.072c-2.202,1.573-3.683,4.315-4.283,7.931
		c-0.817,4.922,0.156,10.491,2.429,14.214h-55.701c2.239-3.692,3.235-9.373,2.431-14.214c-0.6-3.615-2.082-6.357-4.283-7.931
		l-0.099-0.07l-21.121-3.018c-35.479-4.928-37.571-14.401-37.571-86.505v-180c0-48.726,2.797-102.929,3.999-123.972l0.004-0.076
		l-0.019-0.073c-0.999-3.994-4.918-6.379-10.485-6.379h-0.148l-0.125,0.081c-23.027,15.019-80.416,41.129-102.891,48.946
		l-0.049,0.018l-0.044,0.026c-2.109,1.266-3.566,4.001-3.998,7.505c-0.549,4.461,0.617,8.993,2.901,11.277l9.076,6.062
		c26.777,17.852,26.777,22.831,26.777,61.584v175c0,35.625-0.236,56.369-5.089,68.438c-4.916,12.226-14.794,15.677-32.478,18.066
		L0.5,1057.095V0.5h1041v1079H462.486z M91.355,455.263c-14.987,0-28.695,5.244-38.597,14.765
		c-10.404,10.004-15.903,23.744-15.903,39.735c0,13.582,4.978,26.18,14.017,35.474c9.424,9.689,22.736,15.026,37.483,15.026
		c14.734,0,27.991-4.483,37.329-12.623c10.58-9.223,16.171-23.012,16.171-39.877C141.855,477.833,120.145,455.263,91.355,455.263z"
		/>
	<path d="M1041,1v1078H463.348c2.019-3.793,2.844-9.088,2.063-13.796c-0.623-3.749-2.174-6.603-4.486-8.255l-0.224-0.16
		l-0.274-0.023l-36-3c-34.792-2.899-37.083-13.508-37.083-86.003v-211c0-26.948,0-28,16-28h107h0.176l0.166-0.06
		c5.508-2.003,10.496-9.885,12.413-19.615c2.034-10.326,0.135-19.323-5.082-24.065l-0.286-0.26h-0.387h-114
		c-8.549,0-12.21-0.306-14.012-3.381c-1.988-3.391-1.988-10.576-1.988-23.619v-29c0-42.049,2.849-119.87,21.923-168.615
		c7.37-17.687,17.19-31.344,29.187-40.593c11.872-9.152,25.63-13.792,40.889-13.792c14.909,0,29.958,4.577,44.729,13.603
		c12.031,7.352,23.644,17.463,34.519,30.055c6.839,7.816,13.082,12.341,24.753,12.341c9.535,0,19.302-3.922,26.799-10.761
		c7.868-7.178,12.201-16.496,12.201-26.239c0-17.388-10.519-33.143-29.619-44.362c-18.265-10.729-42.905-16.638-69.381-16.638
		c-44.888,0-84.72,14.251-118.391,42.357c-32.778,27.361-52.093,61.457-62.528,85.249c-20.914,48.8-31.081,106.499-31.081,176.394
		c0,7.995-4.726,14.245-14.439,19.101l-43,21l-0.243,0.119l-0.15,0.225c-2.079,3.118-2.956,7.108-2.408,10.946
		c0.575,4.027,2.594,7.38,5.685,9.441l0.252,0.168h0.303h35c19,0,19,1.052,19,28v211c0,35.564-0.235,56.268-5.053,68.252
		c-4.824,11.998-14.588,15.393-32.077,17.756l-23,3l-0.248,0.032l-0.204,0.146c-2.312,1.652-3.863,4.506-4.486,8.255
		c-0.782,4.708,0.043,10.003,2.063,13.796H194.36c2.019-3.793,2.844-9.088,2.063-13.796c-0.623-3.749-2.174-6.603-4.486-8.255
		l-0.198-0.142l-0.241-0.035l-21.004-3.001c-17.157-2.383-26.773-5.785-31.713-17.766c-5.059-12.269-5.425-33.967-5.425-68.244v-180
		c0-48.712,2.796-102.905,3.998-123.943l0.009-0.152l-0.037-0.148c-1.058-4.231-5.159-6.757-10.97-6.757h-0.297l-0.249,0.162
		c-23,15-80.329,41.083-102.782,48.893l-0.097,0.034l-0.089,0.053c-2.242,1.345-3.786,4.215-4.237,7.873
		c-0.567,4.605,0.656,9.304,3.044,11.692l0.07,0.07l0.082,0.055l9,6c13.079,8.72,19.895,14.335,23.252,22.667
		c3.303,8.195,3.303,18.96,3.303,38.501v175c0,35.564-0.235,56.268-5.053,68.252c-4.824,11.998-14.588,15.393-32.089,17.758
		L1,1056.518V1H1041 M88.355,560.763c14.855,0,28.229-4.527,37.657-12.746c10.691-9.321,16.343-23.24,16.343-40.254
		c0-14.162-4.977-27.365-14.014-37.177c-9.398-10.203-22.533-15.823-36.986-15.823c-15.117,0-28.948,5.293-38.943,14.904
		c-10.505,10.101-16.057,23.965-16.057,40.096c0,13.713,5.028,26.435,14.158,35.822C60.033,555.372,73.472,560.763,88.355,560.763
		 M1042,0H0v1057.671l20.355-2.908c37-5,38-15,38-87v-175c0-39,0-44-27-62l-9-6c-4-4-4-15,1-18c23-8,80-34,103-49c5,0,9,2,10,6
		c-2,35-4,83-4,124v180c0,72,2,82,38,87l21,3c5.764,4.117,5.422,16.363,1.215,22.237h57.558c-4.207-5.874-4.548-18.12,1.215-22.237
		l23-3c37-5,38-15,38-87v-211c0-27,0-29-20-29h-35c-6-4-7-13-3-19l43-21c8-4,15-10,15-20c0-58,7-120,31-176c25-57,81-127,180-127
		c53,0,98,24,98,60c0,20-19,36-38,36c-11,0-17-4-24-12c-19-22-47-44-80-44c-31,0-56,19-71,55c-18,46-22,119-22,169v29
		c0,27,0,28,17,28h114c11,10,4,38-7,42h-107c-17,0-17,2-17,29v211c0,72,2,84,38,87l36,3c5.764,4.117,5.422,16.363,1.215,22.237H1042
		V0L1042,0z M88.355,559.763c-31,0-51-23-51-50c0-33,24-54,54-54s50,24,50,52C141.355,543.763,116.355,559.763,88.355,559.763
		L88.355,559.763z"/>
</g>
</svg>
